<svg xmlns="http://www.w3.org/2000/svg" viewBox="0 0 158.97 65.74"><defs><style>.cls-1{fill:#231f20;}.cls-2{fill:none;}</style></defs><g id="Layer_2" data-name="Layer 2"><g id="Layer_1-2" data-name="Layer 1"><path class="cls-1" d="m63.22 42.83a15.69 15.69 0 0 1-10.44-3.51a8.59 8.59 0 0 1-2.84-6.46a8.74 8.74 0 0 1 2.84-6.45c2.36-2.15 6.53-3.5 10.44-3.5c4.35 0 7.82 1.1 10.46 3.51a8.62 8.62 0 0 1 2.81 6.44a8.94 8.94 0 0 1-2.81 6.46c-2.46 2.3-6.34 3.51-10.46 3.51v-2.62a7.84 7.84 0 0 0 5.6-2.16a7 7 0 0 0 2.05-5.19a7.21 7.21 0 0 0-2.05-5.21a8.39 8.39 0 0 0-11.22 0a7.65 7.65 0 0 0 0 10.4a8 8 0 0 0 5.62 2.16v2.62M33.27 22.91a17.2 17.2 0 0 0-6.79 1.37c-2 .87-3.57 2.28-3.57 4.63a4.79 4.79 0 0 0 1.3 3.29a7.28 7.28 0 0 0 3.89 1.94c1.06.23 3.35.58 5.64.84s4.49.46 5.4.69c.72.18 1.92.43 1.92 1.78a2 2 0 0 1-1.5 1.86a11.18 11.18 0 0 1-4.5.79a19.45 19.45 0 0 1-5.36-.92a6.56 6.56 0 0 1-3.1-2.09a3.56 3.56 0 0 1-.62-2h-2.51v7h2.76v-.94a.4.4 0 0 1 .6-.33a21.23 21.23 0 0 0 4.06 1.3a17.29 17.29 0 0 0 4.18.52a18 18 0 0 0 5.63-.79a9.9 9.9 0 0 0 3.3-1.64a4.53 4.53 0 0 0 1.78-3.66a5 5 0 0 0-1.44-3.61a6 6 0 0 0-1.78-1.22a12.59 12.59 0 0 0-2.16-.72a61.89 61.89 0 0 0-6.19-1a46.31 46.31 0 0 1-5.54-.75a1.34 1.34 0 0 1-1-1.24a1.73 1.73 0 0 1 .95-1.45a10.91 10.91 0 0 1 5.09-1a14.6 14.6 0 0 1 5.89 1.14a7.6 7.6 0 0 1 1.41.84a4.19 4.19 0 0 1 1.38 2.31h2.24V23.8h-2.5v.7c0 .23-.23.52-.68.29a18.82 18.82 0 0 0-8.18-1.88zM79.21 24v2.21h1.94c1.39 0 1.5.77 1.5 1.45v10.39c0 .63 0 1.47-.86 1.47h-2.4v2.21h10.22v-2.21h-2.49c-1 0-1.05-.45-1.06-1.42v-8.87l14 12.5h3.56l-.18-14.12c0-1 .07-1.37 1.14-1.37h2.23V24H96.42v2.2h2.29c1 0 1.23.41 1.24 1.37l.12 7.39L87.91 24zm37.33 15.48v2.21h12.14v-2.17h-2.9a.67.67 0 0 1-.48-.41v-4.02l.09-.34l6.72-7.67a1.9 1.9 0 0 1 1.75-.84h2.23V24h-10v2.2h1.5a.43.43 0 0 1 .38.69l-4.25 5h-.12l-4.14-4.95c-.3-.37 0-.69.27-.69h1.47V24H109v2.2h2.18a2.63 2.63 0 0 1 1.91 1c.28.31 6.49 7.36 6.64 7.56s.15.22.15.31v3.98a.79.79 0 0 1-.48.41h-.62z"/><rect class="cls-2" x="22.91" y="22.91" width="113.14" height="19.92"/><path class="cls-2" d="m44.24 10.36a17.2 17.2 0 0 0-1.37-6.79C42 1.61 40.59 0 38.24 0A4.79 4.79 0 0 0 35 1.3a7.28 7.28 0 0 0-2 3.89c-.23 1.06-.58 3.35-.84 5.63s-.46 4.49-.69 5.41c-.18.72-.44 1.92-1.78 1.92a2 2 0 0 1-1.86-1.5a11.23 11.23 0 0 1-.79-4.5a19.37 19.37 0 0 1 .96-5.36a6.61 6.61 0 0 1 2.08-3.1a3.58 3.58 0 0 1 2-.63V.55h-7v2.77h.92a.4.4 0 0 1 .33.6A21.06 21.06 0 0 0 25 8a17.45 17.45 0 0 0-.52 4.19a18.1 18.1 0 0 0 .79 5.63a9.81 9.81 0 0 0 1.65 3.34a4.56 4.56 0 0 0 3.66 1.78a5 5 0 0 0 3.61-1.44a5.92 5.92 0 0 0 1.22-1.79a13.47 13.47 0 0 0 .77-2.2c.35-1.43.78-4.65.94-6.18a43.84 43.84 0 0 1 .75-5.54a1.34 1.34 0 0 1 1.24-1a1.73 1.73 0 0 1 1.45 1a10.88 10.88 0 0 1 1 5.09a14.64 14.64 0 0 1-1.14 5.89a7.94 7.94 0 0 1-.84 1.41a4.31 4.31 0 0 1-2.31 1.38v2.23h6.06v-2.61h-.7c-.23 0-.52-.23-.29-.68a18.87 18.87 0 0 0 1.9-8.14z"/><path class="cls-2" d="m44.24 53.19a17.17 17.17 0 0 0-1.37-6.79c-.87-2-2.28-3.57-4.63-3.57A4.86 4.86 0 0 0 35 44.12a7.36 7.36 0 0 0-2 3.88c-.23 1.07-.58 3.35-.84 5.64s-.46 4.49-.69 5.4C31.3 59.77 31 61 29.7 61a2 2 0 0 1-1.86-1.49a11.25 11.25 0 0 1-.79-4.51a19.36 19.36 0 0 1 .95-5.38a6.56 6.56 0 0 1 2.08-3.1a3.58 3.58 0 0 1 2-.63v-2.51h-7v2.77h.92a.39.39 0 0 1 .33.6a21.06 21.06 0 0 0-1.3 4a17.45 17.45 0 0 0-.53 4.25a18 18 0 0 0 .79 5.62A9.85 9.85 0 0 0 26.94 64a4.56 4.56 0 0 0 3.66 1.78a5.08 5.08 0 0 0 3.61-1.44a5.92 5.92 0 0 0 1.22-1.79a13.47 13.47 0 0 0 .77-2.2c.35-1.43.78-4.66.94-6.19a43.92 43.92 0 0 1 .75-5.53a1.34 1.34 0 0 1 1.24-1a1.73 1.73 0 0 1 1.45 1a10.84 10.84 0 0 1 1 5.08a14.65 14.65 0 0 1-1.14 5.9a7.53 7.53 0 0 1-.84 1.4a4.19 4.19 0 0 1-2.31 1.38v2.11h6.06V62h-.7c-.23 0-.52-.23-.29-.69a18.77 18.77 0 0 0 1.88-8.12z"/><path class="cls-2" d="m10.36 22.91a17.2 17.2 0 0 0-6.79 1.37C1.61 25.15 0 26.56 0 28.91a4.79 4.79 0 0 0 1.3 3.29a7.28 7.28 0 0 0 3.89 1.94c1.06.23 3.35.58 5.63.84s4.49.46 5.41.69c.72.18 1.92.43 1.92 1.78a2 2 0 0 1-1.5 1.86a11.23 11.23 0 0 1-4.5.79a19.37 19.37 0 0 1-5.36-.92a6.56 6.56 0 0 1-3.1-2.09a3.55 3.55 0 0 1-.63-2H.55v7h2.77v-.94a.4.4 0 0 1 .6-.33A21.06 21.06 0 0 0 8 42.13a17.45 17.45 0 0 0 4.19.52a18.1 18.1 0 0 0 5.63-.79a10 10 0 0 0 3.34-1.65a4.56 4.56 0 0 0 1.78-3.66a5 5 0 0 0-1.44-3.61a5.92 5.92 0 0 0-1.79-1.22a12.59 12.59 0 0 0-2.2-.77a61.26 61.26 0 0 0-6.21-.95a45.75 45.75 0 0 1-5.54-.75a1.34 1.34 0 0 1-1-1.24a1.73 1.73 0 0 1 1-1.45a10.88 10.88 0 0 1 5.09-1a14.64 14.64 0 0 1 5.89 1.14a7.94 7.94 0 0 1 1.41.84a4.31 4.31 0 0 1 1.38 2.31h2.23V23.8h-2.58v.7c0 .23-.23.52-.68.29a18.87 18.87 0 0 0-8.14-1.88z"/><path class="cls-2" d="m146.42 22.91a17.13 17.13 0 0 0-6.79 1.37c-2 .87-3.57 2.28-3.57 4.63a4.81 4.81 0 0 0 1.29 3.29a7.36 7.36 0 0 0 3.89 1.94c1.07.23 3.35.58 5.64.84s4.49.46 5.4.69c.72.18 1.92.43 1.92 1.78a2 2 0 0 1-1.49 1.86a11.25 11.25 0 0 1-4.51.79a19.52 19.52 0 0 1-5.36-.92a6.54 6.54 0 0 1-3.09-2.09a3.55 3.55 0 0 1-.63-2h-2.51v7h2.77v-.94a.39.39 0 0 1 .6-.33a21.06 21.06 0 0 0 4.05 1.3a17.45 17.45 0 0 0 4.19.52a18 18 0 0 0 5.62-.79a10 10 0 0 0 3.35-1.65a4.56 4.56 0 0 0 1.81-3.65a5.08 5.08 0 0 0-1.44-3.61a6.05 6.05 0 0 0-1.79-1.22a12.59 12.59 0 0 0-2.2-.77a61.45 61.45 0 0 0-6.19-.94a45.84 45.84 0 0 1-5.53-.75a1.34 1.34 0 0 1-1-1.24a1.74 1.74 0 0 1 .94-1.45a10.91 10.91 0 0 1 5.09-1a14.65 14.65 0 0 1 5.9 1.14a7.53 7.53 0 0 1 1.4.84a4.19 4.19 0 0 1 1.38 2.31h2.24V23.8h-2.49v.7c0 .23-.24.52-.69.29a18.77 18.77 0 0 0-8.2-1.88z"/></g></g></svg>